<mxfile host="app.diagrams.net" modified="2024-01-31T12:47:10.513Z" agent="Mozilla/5.0 (Macintosh; Intel Mac OS X 10_15_7) AppleWebKit/537.36 (KHTML, like Gecko) Chrome/121.0.0.0 Safari/537.36" etag="D6oEBoxDOoQ4-eNYbJdz" version="23.0.2" type="github">
  <diagram name="Page-1" id="1MX34Ls4Bgg3WhqrJx5v">
    <mxGraphModel dx="1735" dy="922" grid="1" gridSize="10" guides="1" tooltips="1" connect="1" arrows="1" fold="1" page="0" pageScale="1" pageWidth="850" pageHeight="1100" math="0" shadow="0">
      <root>
        <mxCell id="0" />
        <mxCell id="1" parent="0" />
        <mxCell id="TA1RXh0JGJj9LA1LshHT-1" value="&lt;pre style=&quot;color: rgb(255, 255, 255); font-style: normal; font-variant-ligatures: normal; font-variant-caps: normal; font-weight: 400; letter-spacing: normal; orphans: 2; text-align: start; text-indent: 0px; text-transform: none; widows: 2; word-spacing: 0px; -webkit-text-stroke-width: 0px; text-decoration-thickness: initial; text-decoration-style: initial; text-decoration-color: initial; overflow-wrap: break-word;&quot;&gt;&amp;lt;mxfile host=&quot;app.diagrams.net&quot; modified=&quot;2022-03-16T09:38:19.762Z&quot; agent=&quot;5.0 (Macintosh; Intel Mac OS X 10_15_7) AppleWebKit/537.36 (KHTML, like Gecko) Chrome/99.0.4844.51 Safari/537.36&quot; etag=&quot;DhtO60mZcidrkqc-vEKa&quot; version=&quot;16.5.6&quot; type=&quot;device&quot;&amp;gt;&amp;lt;diagram id=&quot;3yLI1t425MeNp9wt49uc&quot; name=&quot;Page-1&quot;&amp;gt;5Ztdc6M2FIZ/jS83gyQ+L2M33nZmd9tOZtrLjgIK0GDkxfI63l9fYYQNNpEdS1ja7lXgRdYBvY90Dh+ZoNni9WOFl9lnmpBiAp3kdYJ+mUAIoAcd/reWto3kukAoaZUnjdYRHvPvRPy2Vdd5QlZCayRGacHyZV+MaVmSmPU0XFV002/2TIukJyxxSnqnUQuPMS7ISbO/84RljRp6nda/kjzN2sjAEUcWuG0shFWGE7rpSOhhgmYVpazZWrzOSFEPX39c5m8c3Z9YRUp2yQ9+e77/mtK//pzS+Zfg++P0ny8vv38QvXzDxVpcsDhZtm1HoKLrMiF1J84ETTdZzsjjEsf10Q13nWsZWxR8D/DNFavoy36kPK4805IJW1Eg9me0oNWudwSm9+AB1npeFK1e0pLsOxtqfHrt7YWQipHXjiTG4iOhC8KqLW/SHnUAunOjKPIACEAYeE0HglMYRe7A0c0BAYSiRss69odCw4K6dB/2YAzfEN68wydo2qfZLIrm/AqmBX4ixRTHL+ku4JFll7i470qLi054F73pogfdgaNdF93w1MUIjuQiGnDRL3jU6ZJvpGw3Jo3wVB0rPGKn1U3Nn89Dx3EutHffWM8kBZJJ6gdD5vfsRQOT1B/JXtf0JHWc2Ww39OqTdN/V+JM0RMCmSeqdmEYSXhKIXVqxjKa0xMXDQZ32be1Y+C9hbCscw2tGuXTo4ROly57VQ4vk9RmVlMl9XQFx+amg8UsjzfN6OHbnyfdEP1DqdH39Up8rUmCWf+uXTEPGiJ/+QXMe4sCH6/i9WQ6PVvHAuQP+4TDqB1jRdRUT0We3ADoO4yuFYbhKCTsJw4cYbzvNlnWD1QmF+9G6HkzfHJjX5Ip34AdCvpvgVbY7U/l8MEmpK8PHB4EmSlXCGKc0sJPSDo1xgVerPJbUuHbS50kXL+hpok8ljHH6Qjvp05Wiryi2RwcTRf17rCNiAgi1gOkphTEOZvRDgDlS8raCUijFx480UaoSxjil7VNX2zBVy95W4IdkXPiBntrRUwpjHj9gJ36jpe/zT1luQKb0pjgM9dx7e0phzJN5+ijPRjJHyt9WYCq9K46grgVUJYx5TJGdmKrlbyvwk94Wh0jP3benFMY8fq6d+I2Wv8+/kB6fzFCWWJHjasrfSmHMk2nwrY75/G0FprLEipxQU/5WCmMeU0vf8ajlbyvwkyZWfkATfiphzOMnXt7c8guGi74omc8RGlothf4mV7o+B0PA8858o3DTz8HAz/ee45zVpgst6IA7f/xC60wY80vIT/6iwwJMpRUQdENNmKqEMY4p/J++6LAAP1kFxPOorwm/Xpj2M88Lw5jHz8B39xcVWryMiYZWS6GPX2ghZFWhNeCLbevEtQXVtVabLrRQeJNC60wY80uI/Y/6tRRUFmPqylKQC0cptN4Zxjymlr4SGCy0fiz8pIUWQjcptM6EGRE/vnv438mm+eF/UNHDfw==&amp;lt;/diagram&amp;gt;&amp;lt;/mxfile&amp;gt;&lt;/pre&gt;" style="text;whiteSpace=wrap;html=1;" vertex="1" parent="1">
          <mxGeometry x="400" y="290" width="560" height="60" as="geometry" />
        </mxCell>
        <mxCell id="TA1RXh0JGJj9LA1LshHT-2" value="&lt;pre style=&quot;color: rgb(255, 255, 255); font-style: normal; font-variant-ligatures: normal; font-variant-caps: normal; font-weight: 400; letter-spacing: normal; orphans: 2; text-align: start; text-indent: 0px; text-transform: none; widows: 2; word-spacing: 0px; -webkit-text-stroke-width: 0px; text-decoration-thickness: initial; text-decoration-style: initial; text-decoration-color: initial; overflow-wrap: break-word;&quot;&gt;&amp;lt;mxfile host=&quot;app.diagrams.net&quot; modified=&quot;2022-03-16T09:38:19.762Z&quot; agent=&quot;5.0 (Macintosh; Intel Mac OS X 10_15_7) AppleWebKit/537.36 (KHTML, like Gecko) Chrome/99.0.4844.51 Safari/537.36&quot; etag=&quot;DhtO60mZcidrkqc-vEKa&quot; version=&quot;16.5.6&quot; type=&quot;device&quot;&amp;gt;&amp;lt;diagram id=&quot;3yLI1t425MeNp9wt49uc&quot; name=&quot;Page-1&quot;&amp;gt;5Ztdc6M2FIZ/jS83gyQ+L2M33nZmd9tOZtrLjgIK0GDkxfI63l9fYYQNNpEdS1ja7lXgRdYBvY90Dh+ZoNni9WOFl9lnmpBiAp3kdYJ+mUAIoAcd/reWto3kukAoaZUnjdYRHvPvRPy2Vdd5QlZCayRGacHyZV+MaVmSmPU0XFV002/2TIukJyxxSnqnUQuPMS7ISbO/84RljRp6nda/kjzN2sjAEUcWuG0shFWGE7rpSOhhgmYVpazZWrzOSFEPX39c5m8c3Z9YRUp2yQ9+e77/mtK//pzS+Zfg++P0ny8vv38QvXzDxVpcsDhZtm1HoKLrMiF1J84ETTdZzsjjEsf10Q13nWsZWxR8D/DNFavoy36kPK4805IJW1Eg9me0oNWudwSm9+AB1npeFK1e0pLsOxtqfHrt7YWQipHXjiTG4iOhC8KqLW/SHnUAunOjKPIACEAYeE0HglMYRe7A0c0BAYSiRss69odCw4K6dB/2YAzfEN68wydo2qfZLIrm/AqmBX4ixRTHL+ku4JFll7i470qLi054F73pogfdgaNdF93w1MUIjuQiGnDRL3jU6ZJvpGw3Jo3wVB0rPGKn1U3Nn89Dx3EutHffWM8kBZJJ6gdD5vfsRQOT1B/JXtf0JHWc2Ww39OqTdN/V+JM0RMCmSeqdmEYSXhKIXVqxjKa0xMXDQZ32be1Y+C9hbCscw2tGuXTo4ROly57VQ4vk9RmVlMl9XQFx+amg8UsjzfN6OHbnyfdEP1DqdH39Up8rUmCWf+uXTEPGiJ/+QXMe4sCH6/i9WQ6PVvHAuQP+4TDqB1jRdRUT0We3ADoO4yuFYbhKCTsJw4cYbzvNlnWD1QmF+9G6HkzfHJjX5Ip34AdCvpvgVbY7U/l8MEmpK8PHB4EmSlXCGKc0sJPSDo1xgVerPJbUuHbS50kXL+hpok8ljHH6Qjvp05Wiryi2RwcTRf17rCNiAgi1gOkphTEOZvRDgDlS8raCUijFx480UaoSxjil7VNX2zBVy95W4IdkXPiBntrRUwpjHj9gJ36jpe/zT1luQKb0pjgM9dx7e0phzJN5+ijPRjJHyt9WYCq9K46grgVUJYx5TJGdmKrlbyvwk94Wh0jP3benFMY8fq6d+I2Wv8+/kB6fzFCWWJHjasrfSmHMk2nwrY75/G0FprLEipxQU/5WCmMeU0vf8ajlbyvwkyZWfkATfiphzOMnXt7c8guGi74omc8RGlothf4mV7o+B0PA8858o3DTz8HAz/ee45zVpgst6IA7f/xC60wY80vIT/6iwwJMpRUQdENNmKqEMY4p/J++6LAAP1kFxPOorwm/Xpj2M88Lw5jHz8B39xcVWryMiYZWS6GPX2ghZFWhNeCLbevEtQXVtVabLrRQeJNC60wY80uI/Y/6tRRUFmPqylKQC0cptN4Zxjymlr4SGCy0fiz8pIUWQjcptM6EGRE/vnv438mm+eF/UNHDfw==&amp;lt;/diagram&amp;gt;&amp;lt;/mxfile&amp;gt;&lt;/pre&gt;" style="text;whiteSpace=wrap;html=1;" vertex="1" parent="1">
          <mxGeometry x="50" y="210" width="560" height="60" as="geometry" />
        </mxCell>
        <mxCell id="TA1RXh0JGJj9LA1LshHT-3" value="" style="rounded=0;whiteSpace=wrap;html=1;strokeWidth=5;fontSize=37;fontColor=#1BA1E2;fillColor=none;strokeColor=#1BA1E2;" vertex="1" parent="1">
          <mxGeometry x="1013.499951171875" y="2994.499951171875" width="339" height="89" as="geometry" />
        </mxCell>
        <mxCell id="TA1RXh0JGJj9LA1LshHT-4" value="" style="rounded=0;whiteSpace=wrap;html=1;strokeWidth=5;fontSize=37;fontColor=#CC99FF;labelBackgroundColor=none;fillColor=none;strokeColor=#CC99FF;" vertex="1" parent="1">
          <mxGeometry x="1008.999951171875" y="2524.999951171875" width="348" height="92" as="geometry" />
        </mxCell>
        <mxCell id="TA1RXh0JGJj9LA1LshHT-5" value="&lt;p&gt;&lt;br&gt;&lt;/p&gt;" style="rounded=0;whiteSpace=wrap;html=1;strokeWidth=5;fontSize=37;fontColor=#FF8000;fillColor=none;strokeColor=#FF8000;" vertex="1" parent="1">
          <mxGeometry x="1011.499951171875" y="2678.999951171875" width="343" height="86" as="geometry" />
        </mxCell>
        <mxCell id="TA1RXh0JGJj9LA1LshHT-6" value="" style="rounded=0;whiteSpace=wrap;html=1;strokeWidth=5;fontSize=37;fontColor=#00CC00;labelBackgroundColor=none;fillColor=none;strokeColor=#00CC00;" vertex="1" parent="1">
          <mxGeometry x="1008.999951171875" y="2831.999951171875" width="348" height="92" as="geometry" />
        </mxCell>
        <mxCell id="TA1RXh0JGJj9LA1LshHT-7" style="edgeStyle=orthogonalEdgeStyle;rounded=0;html=1;jettySize=auto;orthogonalLoop=1;strokeColor=#CC99FF;strokeWidth=5;fontSize=37;fontColor=#1BA1E2;endArrow=block;endFill=0;endSize=20;" edge="1" parent="1">
          <mxGeometry relative="1" as="geometry">
            <mxPoint x="1406.4999511718752" y="2570.1699511718753" as="sourcePoint" />
            <mxPoint x="1606.4999511718752" y="2570.1699511718753" as="targetPoint" />
            <Array as="points" />
          </mxGeometry>
        </mxCell>
        <mxCell id="TA1RXh0JGJj9LA1LshHT-8" style="edgeStyle=orthogonalEdgeStyle;rounded=0;html=1;jettySize=auto;orthogonalLoop=1;strokeWidth=5;fontSize=37;fontColor=#FF8000;endArrow=block;endFill=0;endSize=18;dashed=1;strokeColor=#CC99FF;" edge="1" parent="1">
          <mxGeometry relative="1" as="geometry">
            <mxPoint x="1404.4999511718752" y="2617.1699511718753" as="sourcePoint" />
            <mxPoint x="1604.4999511718752" y="2617.1699511718753" as="targetPoint" />
            <Array as="points" />
          </mxGeometry>
        </mxCell>
        <mxCell id="TA1RXh0JGJj9LA1LshHT-9" style="edgeStyle=orthogonalEdgeStyle;rounded=0;html=1;jettySize=auto;orthogonalLoop=1;strokeWidth=5;fontSize=37;endArrow=classic;fontColor=#CC99FF;strokeColor=#CC99FF;" edge="1" parent="1">
          <mxGeometry relative="1" as="geometry">
            <mxPoint x="1405.4999511718752" y="2525.1699511718753" as="sourcePoint" />
            <mxPoint x="1605.4999511718752" y="2525.1699511718753" as="targetPoint" />
            <Array as="points" />
          </mxGeometry>
        </mxCell>
        <mxCell id="TA1RXh0JGJj9LA1LshHT-10" style="edgeStyle=orthogonalEdgeStyle;rounded=0;html=1;jettySize=auto;orthogonalLoop=1;strokeWidth=5;fontSize=37;fontColor=#1BA1E2;endArrow=block;endFill=0;endSize=20;strokeColor=#FF8000;" edge="1" parent="1">
          <mxGeometry relative="1" as="geometry">
            <mxPoint x="1394.9999511718752" y="2722.1699511718753" as="sourcePoint" />
            <mxPoint x="1594.9999511718752" y="2722.1699511718753" as="targetPoint" />
            <Array as="points" />
          </mxGeometry>
        </mxCell>
        <mxCell id="TA1RXh0JGJj9LA1LshHT-11" style="edgeStyle=orthogonalEdgeStyle;rounded=0;html=1;jettySize=auto;orthogonalLoop=1;strokeWidth=5;fontSize=37;fontColor=#FF8000;endArrow=block;endFill=0;endSize=18;dashed=1;strokeColor=#FF8000;" edge="1" parent="1">
          <mxGeometry relative="1" as="geometry">
            <mxPoint x="1392.9999511718752" y="2769.1699511718753" as="sourcePoint" />
            <mxPoint x="1592.9999511718752" y="2769.1699511718753" as="targetPoint" />
            <Array as="points" />
          </mxGeometry>
        </mxCell>
        <mxCell id="TA1RXh0JGJj9LA1LshHT-12" style="edgeStyle=orthogonalEdgeStyle;rounded=0;html=1;jettySize=auto;orthogonalLoop=1;strokeWidth=5;fontSize=37;endArrow=classic;fontColor=#CC99FF;strokeColor=#FF8000;" edge="1" parent="1">
          <mxGeometry relative="1" as="geometry">
            <mxPoint x="1393.9999511718752" y="2677.1699511718753" as="sourcePoint" />
            <mxPoint x="1593.9999511718752" y="2677.1699511718753" as="targetPoint" />
            <Array as="points" />
          </mxGeometry>
        </mxCell>
        <mxCell id="TA1RXh0JGJj9LA1LshHT-13" style="edgeStyle=orthogonalEdgeStyle;rounded=0;html=1;jettySize=auto;orthogonalLoop=1;strokeWidth=5;fontSize=37;fontColor=#1BA1E2;endArrow=block;endFill=0;endSize=20;strokeColor=#00CC00;" edge="1" parent="1">
          <mxGeometry relative="1" as="geometry">
            <mxPoint x="1396.4999511718752" y="2880.1699511718753" as="sourcePoint" />
            <mxPoint x="1596.4999511718752" y="2880.1699511718753" as="targetPoint" />
            <Array as="points" />
          </mxGeometry>
        </mxCell>
        <mxCell id="TA1RXh0JGJj9LA1LshHT-14" style="edgeStyle=orthogonalEdgeStyle;rounded=0;html=1;jettySize=auto;orthogonalLoop=1;strokeWidth=5;fontSize=37;fontColor=#FF8000;endArrow=block;endFill=0;endSize=18;dashed=1;strokeColor=#00CC00;" edge="1" parent="1">
          <mxGeometry relative="1" as="geometry">
            <mxPoint x="1394.4999511718752" y="2927.1699511718753" as="sourcePoint" />
            <mxPoint x="1594.4999511718752" y="2927.1699511718753" as="targetPoint" />
            <Array as="points" />
          </mxGeometry>
        </mxCell>
        <mxCell id="TA1RXh0JGJj9LA1LshHT-15" style="edgeStyle=orthogonalEdgeStyle;rounded=0;html=1;jettySize=auto;orthogonalLoop=1;strokeWidth=5;fontSize=37;endArrow=classic;fontColor=#CC99FF;strokeColor=#00CC00;" edge="1" parent="1">
          <mxGeometry relative="1" as="geometry">
            <mxPoint x="1395.4999511718752" y="2835.1699511718753" as="sourcePoint" />
            <mxPoint x="1595.4999511718752" y="2835.1699511718753" as="targetPoint" />
            <Array as="points" />
          </mxGeometry>
        </mxCell>
        <mxCell id="TA1RXh0JGJj9LA1LshHT-16" style="edgeStyle=orthogonalEdgeStyle;rounded=0;html=1;jettySize=auto;orthogonalLoop=1;strokeWidth=5;fontSize=37;fontColor=#1BA1E2;endArrow=block;endFill=0;endSize=20;strokeColor=#1BA1E2;" edge="1" parent="1">
          <mxGeometry relative="1" as="geometry">
            <mxPoint x="1386.4999511718752" y="3040.1699511718753" as="sourcePoint" />
            <mxPoint x="1586.4999511718752" y="3040.1699511718753" as="targetPoint" />
            <Array as="points" />
          </mxGeometry>
        </mxCell>
        <mxCell id="TA1RXh0JGJj9LA1LshHT-17" style="edgeStyle=orthogonalEdgeStyle;rounded=0;html=1;jettySize=auto;orthogonalLoop=1;strokeWidth=5;fontSize=37;fontColor=#FF8000;endArrow=block;endFill=0;endSize=18;dashed=1;strokeColor=#1BA1E2;" edge="1" parent="1">
          <mxGeometry relative="1" as="geometry">
            <mxPoint x="1384.4999511718752" y="3087.1699511718753" as="sourcePoint" />
            <mxPoint x="1584.4999511718752" y="3087.1699511718753" as="targetPoint" />
            <Array as="points" />
          </mxGeometry>
        </mxCell>
        <mxCell id="TA1RXh0JGJj9LA1LshHT-18" style="edgeStyle=orthogonalEdgeStyle;rounded=0;html=1;jettySize=auto;orthogonalLoop=1;strokeWidth=5;fontSize=37;endArrow=classic;fontColor=#CC99FF;strokeColor=#1BA1E2;" edge="1" parent="1">
          <mxGeometry relative="1" as="geometry">
            <mxPoint x="1385.4999511718752" y="2995.1699511718753" as="sourcePoint" />
            <mxPoint x="1585.4999511718752" y="2995.1699511718753" as="targetPoint" />
            <Array as="points" />
          </mxGeometry>
        </mxCell>
        <mxCell id="TA1RXh0JGJj9LA1LshHT-19" value="" style="rounded=0;whiteSpace=wrap;html=1;strokeWidth=5;fontSize=37;fillColor=none;strokeColor=#FFFF33;fontColor=#FFFF33;" vertex="1" parent="1">
          <mxGeometry x="1013.499951171875" y="3155.999951171875" width="339" height="89" as="geometry" />
        </mxCell>
        <mxCell id="TA1RXh0JGJj9LA1LshHT-20" style="edgeStyle=orthogonalEdgeStyle;rounded=0;html=1;jettySize=auto;orthogonalLoop=1;strokeWidth=5;fontSize=37;fontColor=#1BA1E2;endArrow=block;endFill=0;endSize=20;strokeColor=#FFFF33;" edge="1" parent="1">
          <mxGeometry relative="1" as="geometry">
            <mxPoint x="1386.4999511718752" y="3201.6699511718753" as="sourcePoint" />
            <mxPoint x="1586.4999511718752" y="3201.6699511718753" as="targetPoint" />
            <Array as="points" />
          </mxGeometry>
        </mxCell>
        <mxCell id="TA1RXh0JGJj9LA1LshHT-21" style="edgeStyle=orthogonalEdgeStyle;rounded=0;html=1;jettySize=auto;orthogonalLoop=1;strokeWidth=5;fontSize=37;fontColor=#FF8000;endArrow=block;endFill=0;endSize=18;dashed=1;strokeColor=#FFFF33;" edge="1" parent="1">
          <mxGeometry relative="1" as="geometry">
            <mxPoint x="1384.4999511718752" y="3248.6699511718753" as="sourcePoint" />
            <mxPoint x="1584.4999511718752" y="3248.6699511718753" as="targetPoint" />
            <Array as="points" />
          </mxGeometry>
        </mxCell>
        <mxCell id="TA1RXh0JGJj9LA1LshHT-22" style="edgeStyle=orthogonalEdgeStyle;rounded=0;html=1;jettySize=auto;orthogonalLoop=1;strokeWidth=5;fontSize=37;endArrow=classic;fontColor=#CC99FF;strokeColor=#FFFF33;" edge="1" parent="1">
          <mxGeometry relative="1" as="geometry">
            <mxPoint x="1385.4999511718752" y="3156.6699511718753" as="sourcePoint" />
            <mxPoint x="1585.4999511718743" y="3156.6699511718753" as="targetPoint" />
            <Array as="points" />
          </mxGeometry>
        </mxCell>
        <mxCell id="TA1RXh0JGJj9LA1LshHT-23" value="" style="rounded=0;whiteSpace=wrap;html=1;strokeWidth=5;fontSize=37;fillColor=none;strokeColor=#FF3399;fontColor=#FF3399;" vertex="1" parent="1">
          <mxGeometry x="1013.499951171875" y="3335.999951171875" width="339" height="89" as="geometry" />
        </mxCell>
        <mxCell id="TA1RXh0JGJj9LA1LshHT-24" style="edgeStyle=orthogonalEdgeStyle;rounded=0;html=1;jettySize=auto;orthogonalLoop=1;strokeWidth=5;fontSize=37;endArrow=block;endFill=0;endSize=20;strokeColor=#FF3399;fontColor=#FF3399;" edge="1" parent="1">
          <mxGeometry relative="1" as="geometry">
            <mxPoint x="1386.4999511718752" y="3381.6699511718753" as="sourcePoint" />
            <mxPoint x="1586.4999511718752" y="3381.6699511718753" as="targetPoint" />
            <Array as="points" />
          </mxGeometry>
        </mxCell>
        <mxCell id="TA1RXh0JGJj9LA1LshHT-25" style="edgeStyle=orthogonalEdgeStyle;rounded=0;html=1;jettySize=auto;orthogonalLoop=1;strokeWidth=5;fontSize=37;endArrow=block;endFill=0;endSize=18;dashed=1;strokeColor=#FF3399;fontColor=#FF3399;" edge="1" parent="1">
          <mxGeometry relative="1" as="geometry">
            <mxPoint x="1384.4999511718743" y="3428.6699511718753" as="sourcePoint" />
            <mxPoint x="1584.4999511718743" y="3428.6699511718753" as="targetPoint" />
            <Array as="points" />
          </mxGeometry>
        </mxCell>
        <mxCell id="TA1RXh0JGJj9LA1LshHT-26" style="edgeStyle=orthogonalEdgeStyle;rounded=0;html=1;jettySize=auto;orthogonalLoop=1;strokeWidth=5;fontSize=37;endArrow=classic;strokeColor=#FF3399;fontColor=#FF3399;" edge="1" parent="1">
          <mxGeometry relative="1" as="geometry">
            <mxPoint x="1385.4999511718752" y="3336.6699511718753" as="sourcePoint" />
            <mxPoint x="1585.4999511718743" y="3336.6699511718753" as="targetPoint" />
            <Array as="points" />
          </mxGeometry>
        </mxCell>
      </root>
    </mxGraphModel>
  </diagram>
</mxfile>
